<svg t="1757898423067" class="icon" viewBox="0 0 1024 1024" version="1.1" xmlns="http://www.w3.org/2000/svg" p-id="16078" xmlns:xlink="http://www.w3.org/1999/xlink" width="24" height="24"><path d="M566.4 102.4c-3.2 0-6.4 0-9.6-3.2H515.2h-51.2-22.4C240 128 86.4 297.6 86.4 505.6c0 192 134.4 352 310.4 396.8 3.2 0 6.4 3.2 12.8 3.2 3.2 0 6.4 0 6.4 3.2H425.6c12.8 3.2 22.4 3.2 35.2 3.2h60.8c6.4 0 12.8 0 22.4-3.2h9.6c6.4 0 12.8-3.2 19.2-3.2 185.6-38.4 326.4-201.6 326.4-400 6.4-201.6-140.8-368-332.8-403.2z m256 224h-89.6c-28.8-70.4-70.4-131.2-128-179.2 92.8 28.8 172.8 92.8 217.6 179.2z m-316.8-195.2h6.4c76.8 44.8 140.8 112 176 192H316.8c38.4-80 105.6-150.4 188.8-192z m-86.4 9.6c-64 48-115.2 112-147.2 185.6H169.6c51.2-96 140.8-163.2 249.6-185.6zM160 668.8h105.6c32 80 83.2 150.4 153.6 201.6-115.2-25.6-208-102.4-259.2-201.6z m332.8 198.4c-80-44.8-147.2-115.2-182.4-201.6h380.8c-44.8 89.6-112 160-198.4 201.6z m73.6 3.2c73.6-51.2 131.2-121.6 163.2-201.6H832c-51.2 102.4-147.2 179.2-265.6 201.6z m172.8-220.8H153.6c-19.2-44.8-28.8-92.8-28.8-144 0-57.6 12.8-112 38.4-160H832c22.4 48 38.4 102.4 38.4 160 0 51.2-9.6 99.2-28.8 144h-102.4z" p-id="16079"></path><path d="M268.8 377.6c35.2 0 64 9.6 83.2 32 16 19.2 25.6 48 25.6 86.4 0 35.2-9.6 64-28.8 86.4-19.2 22.4-48 32-83.2 32H185.6v-240h83.2z m-64 220.8h54.4c32 0 54.4-9.6 70.4-25.6 16-16 22.4-41.6 22.4-73.6 0-32-6.4-57.6-19.2-73.6-16-19.2-38.4-25.6-70.4-25.6H204.8v198.4zM435.2 377.6l140.8 208v-208h19.2v240H576l-140.8-208v208H416v-240h19.2zM784 393.6c16 12.8 25.6 32 25.6 57.6h-19.2c-3.2-19.2-9.6-32-19.2-41.6-9.6-9.6-25.6-16-48-16-19.2 0-35.2 3.2-44.8 9.6-12.8 6.4-19.2 19.2-19.2 35.2 0 12.8 6.4 22.4 22.4 32 6.4 3.2 22.4 9.6 44.8 16 28.8 9.6 51.2 16 60.8 22.4 19.2 12.8 28.8 28.8 28.8 51.2 0 19.2-9.6 38.4-25.6 48-16 12.8-38.4 16-64 16s-48-6.4-64-19.2c-19.2-16-28.8-35.2-28.8-64h19.2c3.2 22.4 9.6 38.4 22.4 51.2 12.8 9.6 28.8 16 51.2 16 19.2 0 38.4-3.2 51.2-12.8 12.8-9.6 19.2-19.2 19.2-35.2 0-16-9.6-28.8-22.4-38.4-6.4-3.2-25.6-9.6-51.2-19.2-28.8-9.6-44.8-16-54.4-19.2-19.2-9.6-25.6-25.6-25.6-44.8 0-22.4 9.6-35.2 25.6-48 16-9.6 35.2-16 57.6-16s41.6 6.4 57.6 19.2z" p-id="16080"></path></svg>