<svg t="1757664999506" class="icon" viewBox="0 0 1024 1024" version="1.1" xmlns="http://www.w3.org/2000/svg" p-id="67120" xmlns:xlink="http://www.w3.org/1999/xlink" width="24" height="24"><path d="M749.830037 697.202637l0.224551 226.497669-200.992354 100.299694v-226.400363zM991.043317 576.150637v227.287341l-171.4264 85.554142-0.123503-226.250661z m-241.516425-182.111311l0.224552 224.121164-200.692952 99.727088v-224.196015zM991.043317 273.971609v222.713975l-171.598556 87.234536-0.149701-224.570267z m-472.538807-26.347382l179.390495 90.550414-186.119557 93.469585-176.003508-88.398462zM268.97908 121.67326l171.1008 86.36627-183.151734 95.59534-175.726561-88.248761z m489.110711 1.309884l184.293204 92.402965-164.820841 82.784673-179.761005-90.673918zM512.872009 0l165.906173 83.177638-159.079806 84.932883-170.958584-86.224054z" fill="#4DABCF" p-id="67121"></path><path d="M478.107685 493.691563L342.725553 425.629987v294.184992S177.167434 367.542242 161.82682 335.899186c-1.976054-4.083096-10.116048-8.562899-12.196891-9.648232C119.944213 310.663333 32.956683 266.598833 32.956683 266.598833V786.342119l120.337178 64.326536v-271.669956s163.802874 314.765142 165.460814 318.204523c1.657939 3.443124 18.113825 36.616874 35.677499 48.267357 23.402015 15.490315 123.701709 75.804862 123.701709 75.804862z" fill="#4D77CF" p-id="67122"></path></svg>