<svg t="1757991083037" class="icon" viewBox="0 0 1024 1024" version="1.1" xmlns="http://www.w3.org/2000/svg" p-id="3380" xmlns:xlink="http://www.w3.org/1999/xlink" width="24" height="24"><path d="M298.666667 217.6v76.8a4.266667 4.266667 0 0 0 4.266666 4.266667h588.8a4.266667 4.266667 0 0 0 4.266667-4.266667V217.6a4.266667 4.266667 0 0 0-4.266667-4.266667H302.933333a4.266667 4.266667 0 0 0-4.266666 4.266667z m260.266666 251.733333h332.8a4.266667 4.266667 0 0 0 4.266667-4.266666V388.266667a4.266667 4.266667 0 0 0-4.266667-4.266667h-332.8a4.266667 4.266667 0 0 0-4.266666 4.266667v76.8a4.266667 4.266667 0 0 0 4.266666 4.266666z m-170.666666 170.666667h503.466666a4.266667 4.266667 0 0 0 4.266667-4.266667v-76.8a4.266667 4.266667 0 0 0-4.266667-4.266666H388.266667a4.266667 4.266667 0 0 0-4.266667 4.266666v76.8a4.266667 4.266667 0 0 0 4.266667 4.266667z m-85.333334 170.666667h588.8a4.266667 4.266667 0 0 0 4.266667-4.266667v-76.8a4.266667 4.266667 0 0 0-4.266667-4.266667H302.933333a4.266667 4.266667 0 0 0-4.266666 4.266667v76.8a4.266667 4.266667 0 0 0 4.266666 4.266667z" p-id="3381"></path></svg>