<svg t="1757991060007" class="icon" viewBox="0 0 1024 1024" version="1.1" xmlns="http://www.w3.org/2000/svg" p-id="2645" xmlns:xlink="http://www.w3.org/1999/xlink" width="24" height="24"><path d="M213.333333 217.6v76.8a4.266667 4.266667 0 0 0 4.266667 4.266667h588.8a4.266667 4.266667 0 0 0 4.266667-4.266667V217.6a4.266667 4.266667 0 0 0-4.266667-4.266667H217.6a4.266667 4.266667 0 0 0-4.266667 4.266667z m0 512v76.8a4.266667 4.266667 0 0 0 4.266667 4.266667h588.8a4.266667 4.266667 0 0 0 4.266667-4.266667v-76.8a4.266667 4.266667 0 0 0-4.266667-4.266667H217.6a4.266667 4.266667 0 0 0-4.266667 4.266667z m170.666667-341.333333v76.8a4.266667 4.266667 0 0 0 4.266667 4.266666h290.133333a4.266667 4.266667 0 0 0 4.266667-4.266666V388.266667a4.266667 4.266667 0 0 0-4.266667-4.266667H388.266667a4.266667 4.266667 0 0 0-4.266667 4.266667zM302.208 640h419.541333c2.005333 0 3.584-1.92 3.584-4.266667v-76.8c0-2.346667-1.578667-4.266667-3.541333-4.266666H302.208c-1.962667 0-3.541333 1.92-3.541333 4.266666v76.8c0 2.346667 1.578667 4.266667 3.541333 4.266667z" p-id="2646"></path></svg>