<svg t="1757991055885" class="icon" viewBox="0 0 1024 1024" version="1.1" xmlns="http://www.w3.org/2000/svg" p-id="2498" xmlns:xlink="http://www.w3.org/1999/xlink" width="24" height="24"><path d="M721.066667 213.333333H132.266667a4.266667 4.266667 0 0 0-4.266667 4.266667v76.8a4.266667 4.266667 0 0 0 4.266667 4.266667h588.8a4.266667 4.266667 0 0 0 4.266666-4.266667V217.6a4.266667 4.266667 0 0 0-4.266666-4.266667zM132.266667 469.333333h332.8a4.266667 4.266667 0 0 0 4.266666-4.266666V388.266667a4.266667 4.266667 0 0 0-4.266666-4.266667H132.266667a4.266667 4.266667 0 0 0-4.266667 4.266667v76.8a4.266667 4.266667 0 0 0 4.266667 4.266666z m0 170.666667h503.466666a4.266667 4.266667 0 0 0 4.266667-4.266667v-76.8a4.266667 4.266667 0 0 0-4.266667-4.266666H132.266667a4.266667 4.266667 0 0 0-4.266667 4.266666v76.8a4.266667 4.266667 0 0 0 4.266667 4.266667z m588.8 85.333333H132.266667a4.266667 4.266667 0 0 0-4.266667 4.266667v76.8a4.266667 4.266667 0 0 0 4.266667 4.266667h588.8a4.266667 4.266667 0 0 0 4.266666-4.266667v-76.8a4.266667 4.266667 0 0 0-4.266666-4.266667z" p-id="2499"></path></svg>