<svg t="1757991063205" class="icon" viewBox="0 0 1024 1024" version="1.1" xmlns="http://www.w3.org/2000/svg" p-id="2792" xmlns:xlink="http://www.w3.org/1999/xlink" width="24" height="24"><path d="M213.333333 217.6v76.8a4.266667 4.266667 0 0 0 4.266667 4.266667h588.8a4.266667 4.266667 0 0 0 4.266667-4.266667V217.6a4.266667 4.266667 0 0 0-4.266667-4.266667H217.6a4.266667 4.266667 0 0 0-4.266667 4.266667z m0 170.666667v76.8a4.266667 4.266667 0 0 0 4.266667 4.266666h588.8a4.266667 4.266667 0 0 0 4.266667-4.266666V388.266667a4.266667 4.266667 0 0 0-4.266667-4.266667H217.6a4.266667 4.266667 0 0 0-4.266667 4.266667z m4.266667 251.733333h588.8a4.266667 4.266667 0 0 0 4.266667-4.266667v-76.8a4.266667 4.266667 0 0 0-4.266667-4.266666H217.6a4.266667 4.266667 0 0 0-4.266667 4.266666v76.8a4.266667 4.266667 0 0 0 4.266667 4.266667zM810.666667 806.4v-76.8a4.266667 4.266667 0 0 0-4.266667-4.266667H217.6a4.266667 4.266667 0 0 0-4.266667 4.266667v76.8a4.266667 4.266667 0 0 0 4.266667 4.266667h588.8a4.266667 4.266667 0 0 0 4.266667-4.266667z" p-id="2793"></path></svg>