<svg t="1757991076673" class="icon" viewBox="0 0 1024 1024" version="1.1" xmlns="http://www.w3.org/2000/svg" p-id="3086" xmlns:xlink="http://www.w3.org/1999/xlink" width="24" height="24"><path d="M514.986667 301.653333a4.266667 4.266667 0 0 0-6.016 0l-160.426667 160.426667a4.266667 4.266667 0 0 0 2.986667 7.253333h113.493333a4.266667 4.266667 0 0 1 4.266667 4.266667v332.8a4.266667 4.266667 0 0 0 4.266666 4.266667h76.8a4.266667 4.266667 0 0 0 4.266667-4.266667v-332.8a4.266667 4.266667 0 0 1 4.266667-4.266667h113.493333c3.84 0 5.717333-4.608 2.986667-7.253333L514.986667 301.653333zM806.4 128H217.6a4.266667 4.266667 0 0 0-4.266667 4.266667v76.8a4.266667 4.266667 0 0 0 4.266667 4.266666h588.8a4.266667 4.266667 0 0 0 4.266667-4.266666V132.266667a4.266667 4.266667 0 0 0-4.266667-4.266667z" p-id="3087"></path></svg>