<svg t="1757991080487" class="icon" viewBox="0 0 1024 1024" version="1.1" xmlns="http://www.w3.org/2000/svg" p-id="3233" xmlns:xlink="http://www.w3.org/1999/xlink" width="24" height="24"><path d="M810.666667 550.4v-76.8a4.266667 4.266667 0 0 0-4.266667-4.266667H217.6a4.266667 4.266667 0 0 0-4.266667 4.266667v76.8a4.266667 4.266667 0 0 0 4.266667 4.266667h588.8a4.266667 4.266667 0 0 0 4.266667-4.266667z m-301.653334 92.586667l-160.426666 160.426666a4.266667 4.266667 0 0 0 3.029333 7.253334h113.493333a4.266667 4.266667 0 0 1 4.266667 4.266666v119.466667a4.266667 4.266667 0 0 0 4.266667 4.266667h76.8a4.266667 4.266667 0 0 0 4.266666-4.266667v-119.466667a4.266667 4.266667 0 0 1 4.266667-4.266666h113.493333c4.266667 0 5.717333-4.608 2.986667-7.253334l-160.426667-160.426666a4.352 4.352 0 0 0-6.058666 0.042666z m5.973334-261.973334l160.426666-160.426666a4.266667 4.266667 0 0 0-3.029333-7.253334H558.933333a4.266667 4.266667 0 0 1-4.266666-4.266666V89.6a4.266667 4.266667 0 0 0-4.266667-4.266667h-76.8a4.266667 4.266667 0 0 0-4.266667 4.266667v119.466667a4.266667 4.266667 0 0 1-4.266666 4.266666H351.573333a4.266667 4.266667 0 0 0-2.986666 7.296l160.426666 160.426667a4.266667 4.266667 0 0 0 5.973334-0.042667z" p-id="3234"></path></svg>