<svg t="1757903283836" class="icon" viewBox="0 0 1024 1024" version="1.1" xmlns="http://www.w3.org/2000/svg" p-id="9793" xmlns:xlink="http://www.w3.org/1999/xlink" width="24" height="24"><path d="M768 128H256L0 384v384c0 70.72 59.296 128 130.005333 128H896c70.72 0 128-57.28 128-128V385.333333L768 128z m-476.672 85.333333h442.912l169.194667 171.530667L682.666667 384c0 85.333333-76.416 170.666667-170.666667 170.666667-94.261333 0-170.666667-85.333333-170.666667-170.666667H120.661333l170.666667-170.666667zM938.666667 768c0 23.530667-19.136 42.666667-42.666667 42.666667H130.005333C105.781333 810.666667 85.333333 791.125333 85.333333 768V469.333333h183.914667c36.853333 97.312 134.666667 170.666667 241.461333 170.666667 106.688 0 203.776-73.216 240.704-170.4L938.666667 470.336V768z" p-id="9794"></path></svg>