<svg t="1757903170494" class="icon" viewBox="0 0 1024 1024" version="1.1" xmlns="http://www.w3.org/2000/svg" p-id="24625" xmlns:xlink="http://www.w3.org/1999/xlink" width="24" height="24"><path d="M113.7664 540.4672c0-219.9552 178.2784-398.2336 398.2336-398.2336S910.2336 320.512 910.2336 540.4672v284.4672c0 31.4368-25.4976 56.9344-56.9344 56.9344h-56.9344c-31.4368 0-56.9344-25.4976-56.9344-56.9344V597.2992c0-31.4368 25.4976-56.9344 56.9344-56.9344h56.9344c0-188.5184-152.7808-341.2992-341.2992-341.2992S170.7008 351.9488 170.7008 540.4672h56.9344c31.4368 0 56.9344 25.4976 56.9344 56.9344v227.5328c0 31.4368-25.4976 56.9344-56.9344 56.9344h-56.9344c-31.4368 0-56.9344-25.4976-56.9344-56.9344V540.4672z" fill="#323233" p-id="24626"></path></svg>