<svg t="1757660898875" class="icon" viewBox="0 0 1024 1024" version="1.1" xmlns="http://www.w3.org/2000/svg" p-id="25750" xmlns:xlink="http://www.w3.org/1999/xlink" width="24" height="24"><path d="M96 96h64v832H96z" fill="#000000" p-id="25751"></path><path d="M928 864v64H96v-64z" fill="#000000" p-id="25752"></path><path d="M307.2 435.2h192v211.2H307.2V435.2z m64 64v83.2h64V499.2H371.2zM627.2 288h192v448H627.2V288z m64 384h64V352h-64v320z" fill="#000000" p-id="25753"></path><path d="M377.6 352h44.8v83.2h-44.8z" fill="#000000" p-id="25754"></path><path d="M454.4 352v44.8H345.6v-44.8zM697.6 204.8h44.8v108.8h-44.8z" fill="#000000" p-id="25755"></path><path d="M774.4 204.8v44.8h-108.8v-44.8zM774.4 774.4v44.8h-108.8v-44.8zM377.6 646.4h44.8v83.2h-44.8z" fill="#000000" p-id="25756"></path><path d="M697.6 710.4h44.8v108.8h-44.8zM454.4 684.8v44.8H345.6v-44.8z" fill="#000000" p-id="25757"></path></svg>