<svg t="1758079071712" class="icon" viewBox="0 0 1024 1024" version="1.1" xmlns="http://www.w3.org/2000/svg" p-id="70386" xmlns:xlink="http://www.w3.org/1999/xlink" width="24" height="24"><path d="M512 512m-192 0a3 3 0 1 0 384 0 3 3 0 1 0-384 0Z" fill="#272636" p-id="70387"></path><path d="M544 224C544 243.2 531.2 256 512 256l0 0C492.8 256 480 243.2 480 224l0-64C480 140.8 492.8 128 512 128l0 0c19.2 0 32 12.8 32 32L544 224z" fill="#272636" p-id="70388"></path><path d="M544 864C544 883.2 531.2 896 512 896l0 0c-19.2 0-32-12.8-32-32l0-64C480 780.8 492.8 768 512 768l0 0c19.2 0 32 12.8 32 32L544 864z" fill="#272636" p-id="70389"></path><path d="M800 544C780.8 544 768 531.2 768 512l0 0c0-19.2 12.8-32 32-32l64 0C883.2 480 896 492.8 896 512l0 0c0 19.2-12.8 32-32 32L800 544z" fill="#272636" p-id="70390"></path><path d="M160 544C140.8 544 128 531.2 128 512l0 0c0-19.2 12.8-32 32-32l64 0C243.2 480 256 492.8 256 512l0 0c0 19.2-12.8 32-32 32L160 544z" fill="#272636" p-id="70391"></path><path d="M736 332.8c-12.8 12.8-32 12.8-44.8 0l0 0c-12.8-12.8-12.8-32 0-44.8l44.8-44.8c12.8-12.8 32-12.8 44.8 0l0 0c12.8 12.8 12.8 32 0 44.8L736 332.8z" fill="#272636" p-id="70392"></path><path d="M288 780.8c-12.8 12.8-32 12.8-44.8 0l0 0c-12.8-12.8-12.8-32 0-44.8l44.8-44.8c12.8-12.8 32-12.8 44.8 0l0 0c12.8 12.8 12.8 32 0 44.8L288 780.8z" fill="#272636" p-id="70393"></path><path d="M691.2 736c-12.8-12.8-12.8-32 0-44.8l0 0c12.8-12.8 32-12.8 44.8 0l44.8 44.8c12.8 12.8 12.8 32 0 44.8l0 0c-12.8 12.8-32 12.8-44.8 0L691.2 736z" fill="#272636" p-id="70394"></path><path d="M243.2 288C230.4 275.2 230.4 256 243.2 243.2l0 0c12.8-12.8 32-12.8 44.8 0l44.8 44.8c12.8 12.8 12.8 32 0 44.8l0 0C320 345.6 300.8 345.6 288 332.8L243.2 288z" fill="#272636" p-id="70395"></path></svg>