<svg t="1758079825570" class="icon" viewBox="0 0 1024 1024" version="1.1" xmlns="http://www.w3.org/2000/svg" p-id="91912" xmlns:xlink="http://www.w3.org/1999/xlink" width="24" height="24"><path d="M780.501333 243.498667c116.608 116.608 116.608 313.728 0 430.336l60.330667 60.330666c149.333333-149.333333 149.333333-401.664 0-550.997333l-60.330667 60.330667z m-67.669333 362.666666c40.277333-40.234667 62.506667-92.672 62.506667-147.498666s-22.229333-107.264-62.506667-147.498667l-60.330667 60.330667c24.149333 24.149333 37.504 55.125333 37.504 87.168s-13.354667 63.018667-37.504 87.168l60.330667 60.330666z m-448-362.666666L204.501333 183.168c-149.333333 149.333333-149.333333 401.664 0 550.997333l60.330667-60.330666c-116.608-116.608-116.608-313.728 0-430.336z" fill="" p-id="91913"></path><path d="M311.168 311.168c-40.277333 40.234667-62.506667 92.672-62.506667 147.498667s22.229333 107.264 62.506667 147.498666l60.330667-60.330666c-24.149333-24.149333-37.504-55.125333-37.504-87.168s13.354667-63.018667 37.504-87.168L311.168 311.168zM554.666667 896v-374.485333a84.906667 84.906667 0 0 0 42.666666-73.514667 85.333333 85.333333 0 0 0-170.666666 0 84.821333 84.821333 0 0 0 42.666666 73.514667V896h85.333334z" fill="" p-id="91914"></path></svg>