<svg t="1758079421690" class="icon" viewBox="0 0 1024 1024" version="1.1" xmlns="http://www.w3.org/2000/svg" p-id="77658" xmlns:xlink="http://www.w3.org/1999/xlink" width="24" height="24"><path d="M42.666667 426.666667v85.333333a384 384 0 0 1 384 384h85.333333c0-259.413333-210.346667-469.333333-469.333333-469.333333m0 170.666666v85.333334a213.333333 213.333333 0 0 1 213.333333 213.333333h85.333333a298.666667 298.666667 0 0 0-298.666666-298.666667m0 170.666667v128h128a128 128 0 0 0-128-128M896 128H128c-47.36 0-85.333333 37.973333-85.333333 85.333333v128h85.333333V213.333333h768v597.333334h-298.666667v85.333333h298.666667a85.333333 85.333333 0 0 0 85.333333-85.333333V213.333333a85.333333 85.333333 0 0 0-85.333333-85.333333z" fill="" p-id="77659"></path></svg>