<svg t="1757993430648" class="icon" viewBox="0 0 1024 1024" version="1.1" xmlns="http://www.w3.org/2000/svg" p-id="11621" xmlns:xlink="http://www.w3.org/1999/xlink" width="24" height="24"><path d="M896 682.666667h-128V365.226667A109.226667 109.226667 0 0 0 658.773333 256H341.333333V128a42.666667 42.666667 0 0 0-85.333333 0v128H128a42.666667 42.666667 0 0 0 0 85.333333h128v317.44A109.226667 109.226667 0 0 0 365.226667 768H682.666667v128a42.666667 42.666667 0 0 0 85.333333 0v-128h128a42.666667 42.666667 0 0 0 0-85.333333zM365.226667 682.666667a23.893333 23.893333 0 0 1-23.893334-23.893334V341.333333h317.44a23.893333 23.893333 0 0 1 23.893334 23.893334V682.666667z" p-id="11622"></path></svg>