<svg t="1757904390380" class="icon" viewBox="0 0 1024 1024" version="1.1" xmlns="http://www.w3.org/2000/svg" p-id="3409" xmlns:xlink="http://www.w3.org/1999/xlink" width="24" height="24"><path d="M330.016 608.992q-6.016-8.992-8-22.496T320 564V215.008q-3.008-48.992 12-72 4-6.016 8.992-10.016T349.984 128l3.008-0.992q68.992-16.992 80.992-22.016 27.008-12.992 68.992-22.016t74.016-11.008q46.016-3.008 100 0 3.008 0 8.512 0.512t21.504 4 30.496 8.992 33.504 16 32.992 24 25.504 34.496 15.488 47.008q0.992 0.992 3.488 2.496t8.512 7.008 11.488 12 11.008 17.504 8.992 23.488 3.488 30.496-4.992 38.016q3.008 2.016 6.496 6.016t12 16.992 12.992 27.008 3.488 35.488-11.008 42.496q0.992 4 4 9.504t7.488 23.488 6.016 35.008-3.488 39.008-18.016 40.992q-0.992 2.016-4 6.016t-14.496 14.496-24 18.016-33.504 14.016-44 6.496h-80.992q-23.008-3.008-27.008 4-2.016 2.016-2.496 4t-0.512 4.992 0.512 4.992 2.496 8.512 3.008 11.488q8 32 10.496 63.488t-0.992 69.504-24 68-57.504 44.992q-2.016 0.992-6.496 2.496t-16.512 4-23.488 2.016-25.504-7.008-24.512-19.488-18.496-38.496-8.992-61.504q0-3.008-0.512-10.016t-7.008-28-19.008-43.488-40-55.488-66.496-64q-12.992-12-23.008-28.992zM96.992 199.008q0-28.992 20.992-50.496t51.008-21.504h22.016q30.016 0 51.008 21.504t20.992 50.496v332.992q0 30.016-20.992 51.008t-51.008 20.992h-22.016q-30.016 0-51.008-20.992t-20.992-51.008V199.008z" p-id="3410"></path></svg>