<svg t="1757988247860" class="icon" viewBox="0 0 1024 1024" version="1.1" xmlns="http://www.w3.org/2000/svg" p-id="2825" xmlns:xlink="http://www.w3.org/1999/xlink" width="24" height="24"><path d="M496.554667 271.530667a38.4 38.4 0 0 1 0 54.272L310.357333 512l186.197334 186.197333a38.4 38.4 0 0 1-54.314667 54.272l-213.333333-213.333333a38.4 38.4 0 0 1 0-54.272l213.333333-213.333333a38.4 38.4 0 0 1 54.314667 0z m298.666666 0a38.4 38.4 0 0 1 0 54.272L609.024 512l186.197333 186.197333a38.4 38.4 0 0 1-54.314666 54.272l-213.333334-213.333333a38.4 38.4 0 0 1 0-54.272l213.333334-213.333333a38.4 38.4 0 0 1 54.314666 0z" fill="#25282B" p-id="2826"></path></svg>