<svg t="1757988233558" class="icon" viewBox="0 0 1024 1024" version="1.1" xmlns="http://www.w3.org/2000/svg" p-id="2221" xmlns:xlink="http://www.w3.org/1999/xlink" width="24" height="24"><path d="M228.906667 271.530667a38.4 38.4 0 0 1 54.314666 0l213.333334 213.333333a38.4 38.4 0 0 1 0 54.272l-213.333334 213.333333a38.4 38.4 0 1 1-54.314666-54.272L415.146667 512 228.906667 325.802667a38.4 38.4 0 0 1 0-54.272z m298.666666 0a38.4 38.4 0 0 1 54.314667 0l213.333333 213.333333a38.4 38.4 0 0 1 0 54.272l-213.333333 213.333333a38.4 38.4 0 1 1-54.314667-54.272L713.813333 512l-186.197333-186.197333a38.4 38.4 0 0 1 0-54.272z" fill="#25282B" p-id="2222"></path></svg>