<svg t="1757988244258" class="icon" viewBox="0 0 1024 1024" version="1.1" xmlns="http://www.w3.org/2000/svg" p-id="2674" xmlns:xlink="http://www.w3.org/1999/xlink" width="24" height="24"><path d="M484.906667 228.864a38.4 38.4 0 0 1 54.314666 0l213.333334 213.333333a38.4 38.4 0 0 1-54.314667 54.272l-186.154667-186.154666-186.197333 186.154666a38.4 38.4 0 1 1-54.314667-54.272l213.333334-213.333333z m-213.333334 512l213.333334-213.333333a38.4 38.4 0 0 1 54.314666 0l213.333334 213.333333a38.4 38.4 0 0 1-54.314667 54.272l-186.154667-186.154667-186.197333 186.154667a38.4 38.4 0 1 1-54.314667-54.272z" fill="#25282B" p-id="2675"></path></svg>