<svg t="1757987668816" class="icon" viewBox="0 0 1024 1024" version="1.1" xmlns="http://www.w3.org/2000/svg" p-id="32512" xmlns:xlink="http://www.w3.org/1999/xlink" width="24" height="24"><path d="M768 938.666667 170.666667 938.666667c-93.866667 0-170.666667-76.8-170.666667-170.666667L0 341.333333c0-93.866667 76.8-170.666667 170.666667-170.666667l469.333333 0c25.6 0 42.666667 17.066667 42.666667 42.666667s-17.066667 42.666667-42.666667 42.666667L170.666667 256C123.733333 256 85.333333 294.4 85.333333 341.333333l0 426.666667c0 46.933333 38.4 85.333333 85.333333 85.333333l597.333333 0c46.933333 0 85.333333-38.4 85.333333-85.333333l0-298.666667c0-25.6 17.066667-42.666667 42.666667-42.666667s42.666667 17.066667 42.666667 42.666667l0 298.666667C938.666667 861.866667 861.866667 938.666667 768 938.666667z" p-id="32513"></path><path d="M640 512c-12.8 0-21.333333-4.266667-29.866667-12.8-17.066667-17.066667-17.066667-42.666667 0-59.733333l341.333333-341.333333c17.066667-17.066667 42.666667-17.066667 59.733333 0s17.066667 42.666667 0 59.733333l-341.333333 341.333333C661.333333 507.733333 652.8 512 640 512z" p-id="32514"></path><path d="M981.333333 170.666667l-170.666667 0c-25.6 0-42.666667-17.066667-42.666667-42.666667s17.066667-42.666667 42.666667-42.666667l170.666667 0c25.6 0 42.666667 17.066667 42.666667 42.666667S1006.933333 170.666667 981.333333 170.666667z" p-id="32515"></path><path d="M981.333333 341.333333c-25.6 0-42.666667-17.066667-42.666667-42.666667L938.666667 128c0-25.6 17.066667-42.666667 42.666667-42.666667s42.666667 17.066667 42.666667 42.666667l0 170.666667C1024 324.266667 1006.933333 341.333333 981.333333 341.333333z" p-id="32516"></path></svg>