<svg t="1758079491280" class="icon" viewBox="0 0 1024 1024" version="1.1" xmlns="http://www.w3.org/2000/svg" p-id="79867" xmlns:xlink="http://www.w3.org/1999/xlink" width="24" height="24"><path d="M791.04 881.066667a33.706667 33.706667 0 0 1-22.613333-9.386667 32 32 0 0 1 0-45.226667 362.666667 362.666667 0 1 0-512 0 32 32 0 0 1-45.226667 45.226667A426.666667 426.666667 0 1 1 938.666667 569.6a424.106667 424.106667 0 0 1-125.013334 302.08 33.706667 33.706667 0 0 1-22.613333 9.386667z" fill="#212121" p-id="79868"></path><path d="M670.293333 760.32a33.706667 33.706667 0 0 1-22.613333-9.386667 32 32 0 0 1 0-45.226666 192 192 0 1 0-271.36 0 32 32 0 0 1-45.226667 45.226666A256 256 0 0 1 256 569.6a256 256 0 0 1 512 0 256 256 0 0 1-75.093333 181.333333 32.853333 32.853333 0 0 1-22.613334 9.386667z" fill="#212121" p-id="79869"></path><path d="M512 654.933333a85.333333 85.333333 0 1 1 85.333333-85.333333 85.333333 85.333333 0 0 1-85.333333 85.333333z m0-106.666666a21.333333 21.333333 0 0 0-21.333333 21.333333 21.333333 21.333333 0 1 0 42.666666 0 21.333333 21.333333 0 0 0-21.333333-21.333333z" fill="#212121" p-id="79870"></path></svg>