<svg t="1757988255879" class="icon" viewBox="0 0 1024 1024" version="1.1" xmlns="http://www.w3.org/2000/svg" p-id="3127" xmlns:xlink="http://www.w3.org/1999/xlink" width="24" height="24"><path d="M601.685333 128a38.4 38.4 0 0 1 38.4-38.4h170.666667a123.733333 123.733333 0 0 1 123.733333 123.733333v597.333334a123.733333 123.733333 0 0 1-123.733333 123.733333h-170.666667a38.4 38.4 0 1 1 0-76.8h170.666667a46.933333 46.933333 0 0 0 46.933333-46.933333V213.333333a46.933333 46.933333 0 0 0-46.933333-46.933333h-170.666667a38.4 38.4 0 0 1-38.4-38.4zM399.573333 271.530667a38.4 38.4 0 0 1 54.314667 0l213.333333 213.333333a38.4 38.4 0 0 1 0 54.272l-213.333333 213.333333a38.4 38.4 0 1 1-54.314667-54.272L547.413333 550.4H128.085333a38.4 38.4 0 1 1 0-76.8h419.285334L399.573333 325.802667a38.4 38.4 0 0 1 0-54.272z" fill="#25282B" p-id="3128"></path></svg>