<svg t="1757988149586" class="icon" viewBox="0 0 1024 1024" version="1.1" xmlns="http://www.w3.org/2000/svg" p-id="1162" xmlns:xlink="http://www.w3.org/1999/xlink" width="24" height="24"><path d="M341.418667 89.6a38.4 38.4 0 0 1 38.4 38.4v128a123.733333 123.733333 0 0 1-123.733334 123.733333h-128a38.4 38.4 0 0 1 0-76.8h128a46.933333 46.933333 0 0 0 46.933334-46.933333V128a38.4 38.4 0 0 1 38.4-38.4z m341.333333 0a38.4 38.4 0 0 1 38.4 38.4v128a46.933333 46.933333 0 0 0 46.933333 46.933333h128a38.4 38.4 0 0 1 0 76.8h-128a123.733333 123.733333 0 0 1-123.733333-123.733333V128a38.4 38.4 0 0 1 38.4-38.4zM89.685333 682.666667a38.4 38.4 0 0 1 38.4-38.4h128a123.733333 123.733333 0 0 1 123.733334 123.733333v128a38.4 38.4 0 1 1-76.8 0v-128a46.933333 46.933333 0 0 0-46.933334-46.933333h-128a38.4 38.4 0 0 1-38.4-38.4z m678.4 38.4a46.933333 46.933333 0 0 0-46.933333 46.933333v128a38.4 38.4 0 0 1-76.8 0v-128a123.733333 123.733333 0 0 1 123.733333-123.733333h128a38.4 38.4 0 0 1 0 76.8h-128z" fill="#25282B" p-id="1163"></path></svg>