<svg t="1757988158852" class="icon" viewBox="0 0 1024 1024" version="1.1" xmlns="http://www.w3.org/2000/svg" p-id="1464" xmlns:xlink="http://www.w3.org/1999/xlink" width="24" height="24"><path d="M484.906667 58.197333a38.4 38.4 0 0 1 54.314666 0l128 128a38.4 38.4 0 0 1-54.314666 54.272l-62.421334-62.421333V473.6h295.552l-62.464-62.464a38.4 38.4 0 1 1 54.314667-54.272l128 128a38.4 38.4 0 0 1 0 54.272l-128 128a38.4 38.4 0 1 1-54.314667-54.272L846.08 550.4h-295.552v295.552l62.421333-62.421333a38.4 38.4 0 1 1 54.314667 54.272l-128 128a38.4 38.4 0 0 1-54.314667 0l-128-128a38.4 38.4 0 1 1 54.314667-54.272l62.464 62.421333V550.4H178.090667l62.464 62.464a38.4 38.4 0 0 1-54.314667 54.272l-128-128a38.4 38.4 0 0 1 0-54.272l128-128a38.4 38.4 0 0 1 54.314667 54.272L178.090667 473.6h295.594666V178.048L411.221333 240.469333a38.4 38.4 0 0 1-54.314666-54.272l128-128z" fill="#25282B" p-id="1465"></path></svg>