<svg t="1758079451849" class="icon" viewBox="0 0 1024 1024" version="1.1" xmlns="http://www.w3.org/2000/svg" p-id="78701" xmlns:xlink="http://www.w3.org/1999/xlink" width="24" height="24"><path d="M853.333333 85.333333 170.666667 85.333333C123.733333 85.333333 85.333333 123.733333 85.333333 170.666667l0 682.666667c0 46.933333 38.4 85.333333 85.333333 85.333333l682.666667 0c46.933333 0 85.333333-38.4 85.333333-85.333333L938.666667 170.666667C938.666667 123.733333 900.266667 85.333333 853.333333 85.333333zM853.333333 853.333333 170.666667 853.333333 170.666667 170.666667l682.666667 0L853.333333 853.333333zM768 256l-213.333333 0c-46.933333 0-85.333333 38.4-85.333333 85.333333l0 98.133333c-25.6 12.8-42.666667 42.666667-42.666667 72.533333 0 46.933333 38.4 85.333333 85.333333 85.333333 46.933333 0 85.333333-38.4 85.333333-85.333333 0-29.866667-17.066667-59.733333-42.666667-72.533333L554.666667 341.333333l128 0 0 341.333333L341.333333 682.666667 341.333333 341.333333l85.333333 0L426.666667 256 341.333333 256 256 256l0 512 512 0L768 256z" p-id="78702"></path></svg>