<svg t="1757991628743" class="icon" viewBox="0 0 1024 1024" version="1.1" xmlns="http://www.w3.org/2000/svg" p-id="48630" xmlns:xlink="http://www.w3.org/1999/xlink" width="24" height="24"><path d="M558.4 34.24a480 480 0 0 0-139.2 947.84h4.48a121.92 121.92 0 0 0 135.68-157.12C523.84 711.04 593.92 672 643.2 672h115.2c398.4 0 229.44-597.12-200-637.76zM160 384a96 96 0 1 1 96 96 96 96 0 0 1-96-96z m128 384a96 96 0 1 1 96-96 96 96 0 0 1-96 96z m224-448a96 96 0 1 1 96-96 96 96 0 0 1-96 96z m256 160a96 96 0 1 1 96-96 96 96 0 0 1-96 96z" fill="#231F20" p-id="48631"></path></svg>