<svg t="1758079368076" class="icon" viewBox="0 0 1024 1024" version="1.1" xmlns="http://www.w3.org/2000/svg" p-id="76401" xmlns:xlink="http://www.w3.org/1999/xlink" width="24" height="24"><path d="M147.1744 358.4a185.6 185.6 0 0 1 185.6-185.6h256c54.6304 0 103.7312 23.6032 137.7024 61.184 17.9712 19.8656 0.8704 47.616-25.9328 47.616-11.0592 0-21.3248-5.2224-29.4656-12.6976a121.1648 121.1648 0 0 0-82.304-32.1024h-256A121.6 121.6 0 0 0 211.1744 358.4v256c0 40.96 20.2496 77.184 51.2768 99.2256 11.008 7.808 19.0976 19.712 19.0976 33.2288 0 23.04-22.272 39.5776-42.1888 27.9552a185.5232 185.5232 0 0 1-92.1856-160.384V358.4zM742.4768 550.4a38.4 38.4 0 1 1-76.8 0 38.4 38.4 0 0 1 76.8 0z" p-id="76402"></path><path d="M486.4 377.6A134.4 134.4 0 0 0 352 512v204.8c0 74.24 60.16 134.4 134.4 134.4h256c74.24 0 134.4-60.16 134.4-134.4v-204.8c0-74.24-60.16-134.4-134.4-134.4H486.4zM416 512A70.4 70.4 0 0 1 486.4 441.6h256A70.4 70.4 0 0 1 812.8 512v204.8c0 31.5648-20.736 58.2656-49.3568 67.2-41.1904-94.2336-153.4464-191.1808-347.4432-200.8064V512z m0 135.2704c152.5248 8.3712 238.848 76.3392 277.12 139.9296H486.4A70.4 70.4 0 0 1 416 716.8v-69.5296z" p-id="76403"></path></svg>