<svg t="1758015306019" class="icon" viewBox="0 0 1024 1024" version="1.1" xmlns="http://www.w3.org/2000/svg" p-id="1559" xmlns:xlink="http://www.w3.org/1999/xlink" width="24" height="24"><path d="M512 4.533c-279.803 0-507.467 227.665-507.467 507.467 0 279.839 227.629 507.467 507.467 507.467 279.839 0 507.467-227.629 507.467-507.467 0-279.803-227.629-507.467-507.467-507.467zM512 946.65c-239.68 0-434.65-195.006-434.65-434.65 0-239.68 194.97-434.65 434.65-434.65 239.644 0 434.65 194.97 434.65 434.65 0 239.644-195.006 434.65-434.65 434.65zM512 329.955c-100.38 0-182.045 81.665-182.045 182.045s81.665 182.045 182.045 182.045 182.045-81.665 182.045-182.045-81.665-182.045-182.045-182.045z" fill="#272636" p-id="1560"></path></svg>