<svg t="1758158287261" class="icon" viewBox="0 0 1024 1024" version="1.1" xmlns="http://www.w3.org/2000/svg" p-id="33586" xmlns:xlink="http://www.w3.org/1999/xlink" width="24" height="24"><path d="M512 873.6a41.6 41.6 0 0 1-41.6-41.6V192a41.6 41.6 0 1 1 83.2 0v640a41.6 41.6 0 0 1-41.6 41.6z" p-id="33587"></path><path d="M234.88 713.6a41.6 41.6 0 0 1-20.8-77.76L768 315.84a41.6 41.6 0 0 1 41.6 72.32L256 708.16a43.84 43.84 0 0 1-21.12 5.44z" p-id="33588"></path><path d="M789.12 713.6a43.84 43.84 0 0 1-20.8-5.44l-554.24-320A41.6 41.6 0 1 1 256 315.84l554.24 320a41.6 41.6 0 0 1-20.8 77.76z" p-id="33589"></path></svg>