<svg t="1758079561913" class="icon" viewBox="0 0 1107 1024" version="1.1" xmlns="http://www.w3.org/2000/svg" p-id="81785" xmlns:xlink="http://www.w3.org/1999/xlink" width="25.9453125" height="24"><path d="M1061.7344 350.4128H553.9328c-27.6992 0-46.08 18.4832-46.08 46.1824v323.1232H69.2224c-13.824 0-23.0912-9.216-23.0912-23.0912V142.7456c0-13.8752 9.3184-23.0912 23.0912-23.0912h738.6112c13.824 0 23.0912 9.2672 23.0912 23.0912v138.496c0 13.8752 9.216 23.0912 23.0912 23.0912 13.824 0 22.9888-9.216 22.9888-23.0912V142.7456c0-36.9664-32.3072-69.2736-69.2224-69.2736H69.2224c-36.9152 0-69.2224 32.3072-69.2224 69.2736v553.8816c0 36.9152 32.3072 69.3248 69.2224 69.3248h346.2144v138.3936H276.9408c-13.824 0-23.0912 9.3184-23.0912 23.0912 0 13.8752 9.3184 23.0912 23.0912 23.0912h323.072c13.8752 0 23.0912-9.216 23.0912-23.0912 0-13.824-9.216-23.0912-23.0912-23.0912H461.6192V765.952H507.8528c0 27.5968 18.3808 46.08 46.08 46.08h230.8096v92.3136h-92.3136c-13.8752 0-23.0912 9.3184-23.0912 23.0912 0 13.8752 9.216 23.0912 23.0912 23.0912h230.8096c13.824 0 22.9888-9.216 22.9888-23.0912 0-13.824-9.216-23.0912-22.9888-23.0912H830.9248V812.032h230.8096c27.6992 0 46.08-18.3808 46.08-46.08V396.5952c0-27.6992-18.3808-46.1824-46.08-46.1824z m0 415.488H553.9328V396.5952h507.8016v369.3056z m0 0" fill="#707070" p-id="81786"></path></svg>