<svg t="1758071290299" class="icon" viewBox="0 0 1024 1024" version="1.1" xmlns="http://www.w3.org/2000/svg" p-id="37917" xmlns:xlink="http://www.w3.org/1999/xlink" width="24" height="24"><path d="M170.666667 85.333333 853.333333 85.333333C900.266667 85.333333 938.666667 123.733333 938.666667 170.666667L938.666667 682.666667C938.666667 729.6 900.266667 768 853.333333 768L682.666667 768 512 938.666667 341.333333 768 170.666667 768C123.733333 768 85.333333 729.6 85.333333 682.666667L85.333333 170.666667C85.333333 123.733333 123.733333 85.333333 170.666667 85.333333M768 597.333333 768 512 533.333333 512 448 597.333333 768 597.333333M256 597.333333 362.666667 597.333333 654.933333 303.786667C663.466667 295.68 663.466667 282.026667 654.933333 273.493333L579.84 198.4C571.306667 189.866667 557.653333 189.866667 549.546667 198.4L256 491.946667 256 597.333333Z" p-id="37918"></path></svg>