<svg t="1758071282501" class="icon" viewBox="0 0 1024 1024" version="1.1" xmlns="http://www.w3.org/2000/svg" p-id="37623" xmlns:xlink="http://www.w3.org/1999/xlink" width="24" height="24"><path d="M170.666667 85.333333 853.333333 85.333333C900.266667 85.333333 938.666667 123.733333 938.666667 170.666667L938.666667 682.666667C938.666667 729.6 900.266667 768 853.333333 768L682.666667 768 512 938.666667 341.333333 768 170.666667 768C123.733333 768 85.333333 729.6 85.333333 682.666667L85.333333 170.666667C85.333333 123.733333 123.733333 85.333333 170.666667 85.333333M810.666667 640 810.666667 298.666667 640 469.333333 554.666667 384 298.666667 640 810.666667 640M298.666667 213.333333C251.733333 213.333333 213.333333 251.733333 213.333333 298.666667 213.333333 345.6 251.733333 384 298.666667 384 345.6 384 384 345.6 384 298.666667 384 251.733333 345.6 213.333333 298.666667 213.333333Z" p-id="37624"></path></svg>