<svg t="1758071295617" class="icon" viewBox="0 0 1024 1024" version="1.1" xmlns="http://www.w3.org/2000/svg" p-id="38064" xmlns:xlink="http://www.w3.org/1999/xlink" width="24" height="24"><path d="M170.666667 85.333333 853.333333 85.333333C900.266667 85.333333 938.666667 123.733333 938.666667 170.666667L938.666667 682.666667C938.666667 729.6 900.266667 768 853.333333 768L682.666667 768 512 938.666667 341.333333 768 170.666667 768C123.733333 768 85.333333 729.6 85.333333 682.666667L85.333333 170.666667C85.333333 123.733333 123.733333 85.333333 170.666667 85.333333M170.666667 170.666667 170.666667 682.666667 376.746667 682.666667 512 817.92 647.253333 682.666667 853.333333 682.666667 853.333333 170.666667 170.666667 170.666667M469.333333 256 554.666667 256 554.666667 384 682.666667 384 682.666667 469.333333 554.666667 469.333333 554.666667 597.333333 469.333333 597.333333 469.333333 469.333333 341.333333 469.333333 341.333333 384 469.333333 384 469.333333 256Z" p-id="38065"></path></svg>